PathFileType	4	(X/Y/Z)	Patient4_TMGait_0pt7_01_right_02.trc.trc
DataRate	CameraRate	NumFrames	NumMarkers	Units	OrigDataRate	OrigDataStartFrame	OrigNumFrames
85.889570552147	85.889570552147	4	33	mm	85.889570552147	36	       141
Frame#	Time	Sacral			L.Shoulder			Chest			R.Shoulder			Neck			R.ASIS			L.ASIS			R.Thigh.Superior			R.Thigh.Lateral			R.Thigh.Inferior			R.Patella			L.Thigh.Superior			L.Thigh.Lateral			L.Thigh.Inferior			L.Patella			L.Shank.Superior			L.Shank.Lateral			L.Shank.Inferior			R.Shank.Superior			R.Shank.Lateral			R.Shank.Inferior			R.Heel			R.Midfoot.Superior			R.Midfoot.Lateral			R.Toe			L.Heel			L.Midfoot.Lateral			L.Midfoot.Superior			L.Toe			L.Elbow			L.Wrist			R.Elbow			R.Wrist			
		X1	Y1	Z1	X2	Y2	Z2	X3	Y3	Z3	X4	Y4	Z4	X5	Y5	Z5	X6	Y6	Z6	X7	Y7	Z7	X8	Y8	Z8	X9	Y9	Z9	X10	Y10	Z10	X11	Y11	Z11	X12	Y12	Z12	X13	Y13	Z13	X14	Y14	Z14	X15	Y15	Z15	X16	Y16	Z16	X17	Y17	Z17	X18	Y18	Z18	X19	Y19	Z19	X20	Y20	Z20	X21	Y21	Z21	X22	Y22	Z22	X23	Y23	Z23	X24	Y24	Z24	X25	Y25	Z25	X26	Y26	Z26	X27	Y27	Z27	X28	Y28	Z28	X29	Y29	Z29	X30	Y30	Z30	X31	Y31	Z31	X32	Y32	Z32	X33	Y33	Z33	

36	2.117500000000	739.761121471203	993.226726737813	550.342221683939	927.314531386090	1414.182922970534	358.392351521859	1025.526269154304	1347.170580253801	525.587990716458	937.816482231921	1433.397352863505	692.377612965780	928.421599578334	1480.803653479401	511.680538899974	968.042645483449	931.737216272623	668.312819133610	953.982669523569	951.920933736684	393.406717236504	1039.328499642101	751.995639377089	639.027551253976	977.176184311722	630.428743177905	699.608591741670	1065.436082132317	591.863798923701	622.309502790533	1081.996092213496	501.651890751084	630.522402327436	979.324155226008	730.275753862382	413.077647318264	877.187676010574	623.307809222232	352.247236592927	957.603327617882	532.429332725226	405.523283358606	945.894195609709	449.913533338398	402.721756589834	881.664458798893	392.473451014612	399.794605634716	743.662066436073	335.880970137728	357.945351290900	745.479067453935	207.323404241397	415.991147034847	1056.791364509867	409.565411146677	637.597498665774	988.429645213522	302.392375181492	697.629547867286	1038.757945381437	209.728965685069	637.532560053001	913.481796038772	42.565685415045	599.723717025101	1081.241482077989	98.530048863130	646.458192706800	991.371654035204	36.521885779768	679.622595941194	1199.384263472761	49.256853696467	683.557114454809	566.601559950093	110.385948238107	461.615399282855	629.923792636018	77.532334980331	380.533740201504	729.696772154816	109.871763577021	398.919605476326	829.345780526795	33.695143973429	370.612603287995	897.897564396730	1069.901072594917	239.425333455405	1119.991086181074	1172.787443877884	217.811410775450	821.305199612236	1114.449126313048	825.591144674112	831.145373703501	854.540518510857	849.518699338112	
37	2.129142857143	739.257895720909	994.552937955289	553.592351675154	926.705157962575	1415.354925189623	360.976720960585	1025.660500725633	1348.004462614059	527.652147035085	938.962942772926	1434.374711120357	694.828377042948	928.787637763749	1481.823417709176	514.325066118901	967.711084761504	933.157133181680	670.654526245730	952.726497511334	952.564170164395	395.826758727669	1036.941742761492	751.293209494528	642.372914133206	972.771691615079	630.701556638342	701.997728161758	1060.613645760011	591.189428378129	624.694861182721	1076.000591375527	500.958340259294	632.584241382482	983.096591864771	732.660059975224	415.318183634195	885.213108640417	623.376164213848	353.219556134507	968.334230314417	534.005560808292	406.221693204806	957.478035141225	450.244110744293	402.500504743192	891.103639563714	393.142210804109	399.776664024955	751.000972123688	341.802575039891	358.054811484287	748.253707157027	213.202124019986	415.618387403284	1050.256258029028	409.117988010332	639.496234406788	981.203967579961	302.079700357418	699.016194750469	1031.192286210747	209.433016660733	638.556545040155	905.447980235954	42.461901780858	599.970244617058	1073.165020277995	98.660397760197	646.760382571382	983.333339479241	36.472872434436	679.986699601591	1191.382918496408	49.225751490382	683.763208003318	565.592337186104	125.569782254741	461.370070759202	626.741317215052	88.333222127222	380.442001766180	728.351334342154	114.872400728553	398.271431757826	822.347362462907	32.762532765383	370.610517554102	890.923514866892	1070.777214770631	244.274528637400	1117.395775653130	1163.634425632707	219.997690190141	829.094004610139	1112.797268142341	829.296867830980	849.175992931607	853.276213812944	851.561503054195	
38	2.140785714286	738.596407626768	995.877457359344	556.704039083623	925.957197371561	1416.462495955849	363.446286533457	1025.706305829690	1348.750522464186	529.560939740645	940.134016893158	1435.288176389706	697.172712732380	929.064485479892	1482.797289048241	516.845312618640	967.152195750119	934.508027845306	672.871795505424	951.309887822386	953.124818833033	398.090509962418	1034.177250993509	750.510733710010	645.685879315045	967.977629474587	630.967850777389	704.382424151849	1055.416173299117	590.496795893408	627.113506534436	1069.581882914519	500.274425548775	634.739192037058	986.876495643035	735.391580911540	417.440901538715	893.444077059480	623.839038183450	353.965918177629	979.172401827852	536.140612137629	406.823591705495	969.299843393952	451.199866694514	402.368581458557	901.020242886574	394.292652614495	399.776731880278	759.091431733461	348.064361124279	358.103673669623	751.870054565957	219.631752149655	415.364316769211	1043.364468660092	408.703986975390	641.440150973212	973.705165772158	301.751690350963	700.421945910543	1023.453376408536	209.174626332858	639.608198669604	897.382280476039	42.376863138293	600.194931915178	1065.091754581621	98.712806415566	647.095727257239	975.266745993493	36.425114446350	680.356164755520	1183.354708730917	49.109811479239	683.958943009429	565.861013687728	141.304194460747	461.200037427884	624.758206979949	99.981871303096	380.409556396592	727.944912203686	120.673055465212	397.855637268008	816.219200059202	32.113141466882	370.705377033522	883.850342483315	1071.680504432529	249.119558890373	1114.554558408234	1153.645938330890	222.473441175597	837.111276506528	1111.272186183154	833.027133366323	867.954842989662	852.589034826658	853.494431038960	
39	2.152428571429	737.759103931884	997.174879972158	559.629269100530	925.075497929129	1417.486383256917	365.786203637954	1025.651665184791	1349.384667508996	531.305202921898	941.305995318532	1436.106249928788	699.403309990679	929.259515681306	1483.708359968177	519.222743560913	966.378727450340	935.783601703077	674.967959245266	949.757757415484	953.596877639928	400.192576575267	1031.101412116195	749.707549258785	648.890457179072	962.922854771094	631.245443259309	706.728171700663	1049.967353388229	589.813871017032	629.526556391809	1062.868627134562	499.619653685030	636.942786520190	990.550424975225	738.461061279412	419.438759720347	901.670761352718	624.744833279635	354.521076356282	989.888886799592	538.861605409601	407.339186440478	981.170043773587	452.814166690027	402.301496451343	911.231473821269	395.950489282462	399.800938978645	767.752719003321	354.543211204368	358.137182625721	756.294181650075	226.444801219326	415.258266975306	1036.238033499867	408.331169008653	643.383616647385	966.038188097280	301.439900828187	701.828253910771	1015.600583093039	208.955402306106	640.664725412497	889.275280480187	42.319915706516	600.407844819587	1057.019491419061	98.692252146834	647.462911079284	967.163255647063	36.387224175261	680.734986578899	1175.292308847018	48.906499997184	684.151877698369	567.445980283994	157.023885695493	461.130767831112	624.135109224084	112.049755916964	380.465901877417	728.590216965035	127.123055644384	397.703520603877	811.322094718160	31.904514955528	370.934108517396	876.735887448211	1072.598920857241	253.899696862063	1111.395347598171	1142.869480958927	225.268305182041	845.392207719463	1109.821600461329	836.739853442458	887.375637398220	852.480391824607	855.279519523965	
